#!OML:ASF H:\Terrain\Patient Classification 1\Terrain2\Thursday\justin.ASF
:FULLY-SPECIFIED
:DEGREES
1518
root 7.12568 17.8775 31.9233 -535.029 55.2963 -173.29
lowerback 8.05855 0.902671 2.78202
upperback 4.193 1.75612 4.40465
thorax -0.237949 1.01094 2.84457
lowerneck -8.9809 -5.91318 -10.8234
upperneck 42.5758 -5.11656 7.33977
head 17.9318 -1.67354 4.92718
rclavicle -1.07344e-014 -6.36111e-015
rhumerus -23.8507 -7.26725 -76.0142
rradius 30.1961
rwrist -10.3308
rhand -21.2304 13.2444
rfingers 7.12502
rthumb 5.15188 -16.673
lclavicle -1.07344e-014 -6.36111e-015
lhumerus -38.2535 8.65453 82.9636
lradius 35.791
lwrist 5.9617
lhand -15.2969 20.8099
lfingers 7.12502
lthumb 10.8784 50.5081
rfemur -16.321 -15.9649 21.5134
rtibia 54.6688
rfoot -15.9066 -11.7053
rtoes 11.4312
lfemur -11.6277 -2.10203 -17.7852
ltibia 28.5046
lfoot -13.2798 -7.27348
ltoes 11.9825
1519
root 7.15093 17.868 31.9335 -535.63 54.4534 -173.736
lowerback 8.15608 0.877442 2.55579
upperback 4.2475 1.70785 4.29698
thorax -0.23724 0.984507 2.86253
lowerneck -9.0071 -5.87049 -10.4637
upperneck 42.5306 -5.04125 7.13098
head 17.8689 -1.60218 4.77023
rclavicle 2.34566e-014 -6.59965e-014
rhumerus -23.7748 -7.22164 -76.4104
rradius 30.7182
rwrist -10.5666
rhand -21.4407 13.4275
rfingers 7.12502
rthumb 4.94882 -16.4947
lclavicle 2.34566e-014 -6.59965e-014
lhumerus -38.044 7.95024 83.2188
lradius 35.2859
lwrist 8.49008
lhand -17.5775 19.4464
lfingers 7.12502
lthumb 8.67811 49.248
rfemur -16.1342 -14.9216 21.1711
rtibia 54.3044
rfoot -16.2965 -10.5783
rtoes 9.1891
lfemur -11.4405 -2.01657 -17.9668
ltibia 28.4647
lfoot -13.4008 -7.89903
ltoes 9.30024
1520
root 7.17327 17.8658 31.9401 -535.694 53.4324 -173.514
lowerback 8.22152 0.767291 2.74094
upperback 4.33345 1.59123 4.3781
thorax -0.177916 0.935358 2.8529
lowerneck -9.01122 -5.84322 -10.5188
upperneck 42.4349 -4.98293 7.1611
head 17.8078 -1.57791 4.79866
rclavicle 6.10269e-014 -2.78299e-014
rhumerus -23.5647 -7.23436 -76.6682
rradius 31.1539
rwrist -10.7508
rhand -21.5813 13.7993
rfingers 7.12502
rthumb 4.81309 -16.126
lclavicle 6.10269e-014 -2.78299e-014
lhumerus -37.9036 8.01966 83.2376
lradius 35.0984
lwrist 9.07195
lhand -17.6644 21.146
lfingers 7.12502
lthumb 8.59425 50.9511
rfemur -15.9274 -13.8566 21.2465
rtibia 53.799
rfoot -16.4545 -9.30773
rtoes 7.49265
lfemur -11.23 -2.5862 -17.7172
ltibia 28.3948
lfoot -13.3692 -8.28537
ltoes 8.84813
1521
root 7.19716 17.8718 31.944 -535.643 52.5541 -173.163
lowerback 8.25992 0.686191 2.80725
upperback 4.42788 1.5117 4.61057
thorax -0.103047 0.904703 3.06544
lowerneck -8.96813 -5.87525 -10.918
upperneck 42.4469 -4.95712 7.32442
head 17.8321 -1.60319 4.95999
rclavicle -1.11121e-013 2.06736e-014
rhumerus -23.2999 -6.69491 -76.8515
rradius 31.5059
rwrist -11.0429
rhand -21.6991 13.7967
rfingers 7.12502
rthumb 4.6993 -16.1312
lclavicle -1.11121e-013 2.06736e-014
lhumerus -37.7187 9.02902 82.9601
lradius 34.5556
lwrist 8.45712
lhand -16.6582 22.7185
lfingers 7.12502
lthumb 9.56513 52.4813
rfemur -15.7116 -12.4867 21.3538
rtibia 53.1752
rfoot -16.8092 -7.79632
rtoes 8.37574
lfemur -11.0068 -3.18263 -17.3938
ltibia 28.377
lfoot -13.2982 -8.45388
ltoes 9.51526
1522
root 7.22055 17.8837 31.9674 -535.565 51.4036 -173.233
lowerback 8.16909 0.626034 2.5858
upperback 4.3068 1.41615 4.69743
thorax -0.182434 0.851591 3.28816
lowerneck -8.83253 -5.94973 -10.9576
upperneck 42.4265 -5.03817 7.33743
head 17.8006 -1.62935 4.96141
rclavicle 2.92213e-014 3.18055e-014
rhumerus -23.263 -6.25485 -77.104
rradius 31.9787
rwrist -11.1608
rhand -21.4663 13.3045
rfingers 7.12502
rthumb 4.92412 -16.6183
lclavicle 2.92213e-014 3.18055e-014
lhumerus -37.4415 9.73941 82.4808
lradius 33.7854
lwrist 7.6739
lhand -15.8165 22.1647
lfingers 7.12502
lthumb 10.3772 51.8886
rfemur -15.8449 -11.1792 21.3833
rtibia 52.4526
rfoot -17.7014 -6.36075
rtoes 10.1873
lfemur -11.3231 -3.38969 -17.1705
ltibia 28.3988
lfoot -13.0434 -9.35955
ltoes 10.8148
1523
root 7.25022 17.879 31.985 -535.686 50.3275 -173.365
lowerback 8.14004 0.617326 2.52153
upperback 4.24284 1.39707 4.64454
thorax -0.23226 0.839814 3.27018
lowerneck -8.70434 -6.01147 -10.7927
upperneck 42.2711 -5.1844 7.36506
head 17.686 -1.65002 4.90868
rclavicle 3.69739e-014 4.77083e-015
rhumerus -23.3477 -6.40881 -77.3831
rradius 32.5957
rwrist -11.0159
rhand -21.2402 12.997
rfingers 7.12502
rthumb 5.14239 -16.9206
lclavicle 3.69739e-014 4.77083e-015
lhumerus -37.4357 9.30525 82.315
lradius 33.7417
lwrist 7.52331
lhand -15.6221 21.8926
lfingers 7.12502
lthumb 10.5647 51.607
rfemur -15.7294 -10.0408 21.3727
rtibia 51.6271
rfoot -18.4184 -5.40195
rtoes 7.62603
lfemur -11.4757 -3.6163 -17.0269
ltibia 28.4266
lfoot -13.3276 -10.0404
ltoes 7.27125
1524
root 7.28006 17.8694 31.994 -535.877 49.3112 -173.393
lowerback 8.15503 0.557374 2.54431
upperback 4.27224 1.32534 4.65198
thorax -0.206994 0.807177 3.27133
lowerneck -8.65748 -6.03795 -10.787
upperneck 42.1138 -5.26403 7.4596
head 17.5947 -1.66458 4.9281
rclavicle 6.26172e-014 -2.14687e-014
rhumerus -23.3574 -6.23757 -77.7139
rradius 33.1736
rwrist -10.9765
rhand -21.5395 12.872
rfingers 7.12502
rthumb 4.85348 -17.0524
lclavicle 6.26172e-014 -2.14687e-014
lhumerus -37.542 8.96186 82.2428
lradius 33.8616
lwrist 7.68206
lhand -16.3024 21.2361
lfingers 7.12502
lthumb 9.90842 50.983
rfemur -15.444 -8.98052 21.3653
rtibia 50.707
rfoot -18.801 -4.67815
rtoes 2.71814
lfemur -11.4569 -4.06342 -16.9261
ltibia 28.513
lfoot -13.2189 -10.3894
ltoes 6.43582
1525
root 7.30912 17.8677 32.0065 -535.965 48.2338 -173.374
lowerback 8.16461 0.44909 2.5466
upperback 4.24894 1.19029 4.70696
thorax -0.232202 0.741811 3.33829
lowerneck -8.69843 -6.053 -10.8441
upperneck 42.1696 -5.23778 7.48515
head 17.6408 -1.64847 4.96383
rclavicle 1.98785e-015 -1.29608e-013
rhumerus -23.371 -5.56937 -78.0601
rradius 33.756
rwrist -11.4456
rhand -21.7398 12.6693
rfingers 7.12502
rthumb 4.66005 -17.2595
lclavicle 1.98785e-015 -1.29608e-013
lhumerus -37.5695 8.98006 82.1448
lradius 33.7675
lwrist 8.55132
lhand -20.1352 19.4097
lfingers 7.12502
lthumb 6.20932 49.2987
rfemur -15.2526 -7.78866 21.3867
rtibia 49.7213
rfoot -19.2204 -3.61631
rtoes -0.159879
lfemur -11.5135 -4.52419 -16.7683
ltibia 28.6215
lfoot -13.2424 -10.8692
ltoes 6.19882
1526
root 7.34209 17.8573 32.0296 -535.974 47.1413 -173.329
lowerback 8.17883 0.409999 2.53616
upperback 4.172 1.14121 4.69856
thorax -0.317898 0.716636 3.33832
lowerneck -8.68268 -6.09984 -10.6581
upperneck 42.1963 -5.29911 7.44318
head 17.6497 -1.63484 4.90537
rclavicle 2.24627e-014 -2.38542e-014
rhumerus -23.4659 -5.46352 -78.3551
rradius 34.3265
rwrist -11.8209
rhand -21.6075 12.8514
rfingers 7.12502
rthumb 4.7878 -17.0745
lclavicle 2.24627e-014 -2.38542e-014
lhumerus -37.4612 8.7683 82.0142
lradius 33.5032
lwrist 9.39034
lhand -25.3925 17.5989
lfingers 7.12502
lthumb 1.13245 47.5756
rfemur -15.0895 -6.39887 21.5171
rtibia 48.6646
rfoot -19.7779 -2.7194
rtoes -1.99121
lfemur -11.6698 -4.86291 -16.4955
ltibia 28.7379
lfoot -13.6331 -11.5593
ltoes 4.00864
1527
root 7.37995 17.8565 32.0547 -536.047 46.1123 -173.296
lowerback 8.22674 0.487611 2.52652
upperback 4.12529 1.24499 4.62604
thorax -0.395705 0.767702 3.25794
lowerneck -8.55618 -6.24009 -10.2065
upperneck 42.0513 -5.57789 7.33033
head 17.5384 -1.67926 4.71188
rclavicle -4.81059e-014 -5.32743e-014
rhumerus -23.5894 -6.13757 -78.5498
rradius 34.8229
rwrist -11.791
rhand -21.2658 13.5428
rfingers 7.12502
rthumb 5.11773 -16.3754
lclavicle -4.81059e-014 -5.32743e-014
lhumerus -37.2285 8.79133 81.5149
lradius 33.1043
lwrist 8.28476
lhand -26.8648 17.0696
lfingers 7.12502
lthumb -0.289521 47.0491
rfemur -14.8687 -4.76583 21.6157
rtibia 47.5987
rfoot -20.571 -1.85428
rtoes -2.47597
lfemur -11.7372 -4.91427 -16.2106
ltibia 28.7638
lfoot -13.524 -12.5402
ltoes 3.25679
1528
root 7.41588 17.8515 32.0748 -536.278 45.1155 -173.615
lowerback 8.11853 0.45445 2.25623
upperback 4.09664 1.17067 4.57591
thorax -0.366846 0.725 3.36527
lowerneck -8.49227 -6.31162 -10.1439
upperneck 41.9992 -5.67527 7.30933
head 17.5008 -1.70335 4.6723
rclavicle -5.1684e-014 -2.3059e-014
rhumerus -23.5018 -6.25464 -78.7371
rradius 35.2117
rwrist -11.9982
rhand -20.7979 14.1897
rfingers 7.12502
rthumb 5.56949 -15.7171
lclavicle -5.1684e-014 -2.3059e-014
lhumerus -37.2372 8.94846 81.179
lradius 33.1265
lwrist 7.77634
lhand -26.4574 17.6404
lfingers 7.12502
lthumb 0.103947 47.6201
rfemur -14.7245 -3.06873 21.3554
rtibia 46.4894
rfoot -21.3694 -0.759248
rtoes -2.32578
lfemur -11.9155 -5.05046 -16.2319
ltibia 28.7834
lfoot -13.0508 -13.4872
ltoes 5.07479
